<?xml version="1.0" encoding="UTF-8"?> <svg xmlns="http://www.w3.org/2000/svg" height="511pt" viewBox="0 -21 511.99998 511" width="511pt"> <path d="m506.679688 279.078125c-1.351563-1.496094-2.882813-2.769531-4.554688-3.800781 2.972656-4.425782 4.707031-9.585938 4.992188-15.050782.417968-7.964843-2.292969-15.617187-7.632813-21.542968-5.648437-6.277344-13.742187-9.875-22.195313-9.875-7.386718 0-14.480468 2.726562-19.972656 7.671875l-115.117187 103.691406h-105.359375v-174.515625c14.769531 2.191406 31.742187 6.980469 47.238281 16.84375 3.707031 2.359375 8.339844 2.402344 12.089844.113281 10.902343-6.660156 51.074219-26.378906 110.160156-.621093.015625.003906.03125.011718.046875.019531.011719.003906.023438.007812.035156.015625 3.125 1.332031 6.714844.828125 9.371094-1.316406 2.691406-2.175782 3.960938-5.625 3.308594-9.011719-8.152344-42.3125-32.664063-80.976563-69.019532-108.859375-34.691406-26.613282-78.375-41.894532-123.730468-43.414063v-11.425781c0-4.140625-3.359375-7.5-7.5-7.5-4.144532 0-7.5 3.359375-7.5 7.5v11.425781c-45.359375 1.519531-89.039063 16.800781-123.734375 43.414063-36.351563 27.882812-60.863281 66.546875-69.015625 108.859375-.652344 3.386719.617187 6.839843 3.3125 9.011719 2.644531 2.132812 6.210937 2.640624 9.320312 1.335937.042969-.019531.085938-.039063.128906-.054687 59.085938-25.757813 99.253907-6.039063 110.160157.621093 1.84375 1.125 3.902343 1.6875 5.957031 1.6875 2.125 0 4.246094-.601562 6.128906-1.800781 15.5-9.863281 32.46875-14.652344 47.242188-16.847656v174.515625h-158.828125c-16.460938 0-29.855469 13.394531-29.855469 29.859375 0 5.195312 1.316406 10.128906 3.6875 14.4375-9.082031 2.195312-15.84375 10.390625-15.84375 20.132812 0 11.421875 9.289062 20.710938 20.710938 20.710938h23.28125s-4.339844 5.625-4.34375 5.628906c-7.421876 9.617188-5.566407 23.890625 4.03125 31.296875 9.5 7.332031 23.835937 5.632813 31.296874-4.03125l25.390626-32.894531h100.472656v26.449218c0 10.234376 8.691406 17.257813 18.492187 17.074219 9.449219-.179687 17.507813-7.324219 17.507813-17.074219v-26.449218h65.605468s27.6875 35.867187 27.695313 35.878906c7.324219 9.492188 21.640625 11.476562 31.292969 4.027344 9.519531-7.347656 11.507812-21.609375 4.03125-31.296875l-6.816406-8.828125c12.117187-1.074219 23.570312-6.035156 32.683593-14.242188l113.816407-102.519531c4.109374-3.703125 6.535156-8.785156 6.824218-14.308594.289063-5.523437-1.59375-10.832031-5.292968-14.941406zm-104.695313-114.90625c-22.375-7.96875-66.140625-18.503906-106 1.410156-3.996094-38.714843-16.222656-95.363281-52.679687-129.84375 35.890624 4.234375 69.882812 17.714844 97.636718 39 30.429688 23.339844 51.820313 54.792969 61.042969 89.433594zm-366.289063 0c9.222657-34.640625 30.609376-66.089844 61.039063-89.433594 27.75-21.285156 61.742187-34.765625 97.625-39-10.535156 9.945313-19.667969 22.300781-27.296875 36.949219-1.910156 3.675781-.484375 8.203125 3.191406 10.117188 3.671875 1.914062 8.199219.484374 10.113282-3.1875 10.113281-19.425782 23.042968-34.230469 38.472656-44.058594 42.878906 27.300781 57.160156 86.820312 61.824218 127.863281-22.105468-10.835937-45.125-13.871094-61.597656-14.371094-.078125-.003906-.152344-.003906-.230468-.003906-.074219 0-.152344 0-.226563.003906-16.472656.5-39.492187 3.535157-61.597656 14.371094 2.164062-18.980469 5.839843-37.050781 10.792969-52.898437 1.234374-3.953126-.964844-8.160157-4.921876-9.394532-3.953124-1.234375-8.15625.96875-9.394531 4.921875-5.65625 18.089844-9.617187 38.070313-11.804687 59.527344-39.855469-19.910156-83.617188-9.375-105.988282-1.40625zm180.144532.003906c1.023437-.054687 2.023437-.09375 3-.125.976562.03125 1.976562.070313 3 .125v175.996094h-6zm-152.738282 284.863281c-2.464843 3.191407-7.050781 3.769532-10.257812 1.320313-3.34375-2.550781-2.84375-7.863281-1.320312-10.253906l11.417968-14.792969h18.476563zm158.738282 2.722657c0 1.132812-.921875 2.050781-2.054688 2.050781h-1.894531c-1.132813 0-2.050781-.917969-2.050781-2.050781v-26.449219h6zm133.214844-3.273438c-.25 1.9375-1.238282 3.660157-2.785157 4.855469-3.191406 2.460938-7.792969 1.867188-10.257812-1.320312l-20.617188-26.710938h18.476563l13.71875 17.773438c1.191406 1.546874 1.714844 3.464843 1.464844 5.402343zm141.9375-155.25c-.082032 1.523438-.75 2.925781-1.882813 3.945313l-113.816406 102.519531c-7.59375 6.839844-17.40625 10.605469-27.628907 10.605469h-332.953124c-3.148438 0-5.710938-2.5625-5.710938-5.710938 0-3.148437 2.5625-5.710937 5.710938-5.710937h53.308593c4.140625 0 7.5-3.359375 7.5-7.5 0-4.144531-3.359375-7.5-7.5-7.5h-37.363281c-5.640625-2.199219-9.503906-7.753907-9.503906-13.859375 0-8.191406 6.667968-14.855469 14.859375-14.855469h303.066406c1.851563 0 3.640625-.6875 5.019531-1.929687l117.257813-105.613282c2.734375-2.464844 6.261719-3.820312 9.933593-3.820312 4.210938 0 8.234376 1.792968 11.050782 4.914062 2.65625 2.949219 4.003906 6.757813 3.796875 10.722656-.207031 3.960938-1.945313 7.609376-4.894531 10.265626 0 0-8.40625 6.570312-9.816407 7.839843l-113.820312 102.519531c-2.730469 2.460938-6.261719 3.816407-9.941407 3.816407h-244.75c-4.140624 0-7.5 3.355469-7.5 7.5 0 4.140625 3.359376 7.5 7.5 7.5h244.75c7.394532 0 14.488282-2.726563 19.980469-7.671875l113.820313-102.519532c1.132812-1.019531 2.605468-1.539062 4.121094-1.460937 1.523437.082031 2.925781.75 3.945312 1.882813 1.023438 1.136718 1.539062 2.597656 1.460938 4.121093zm0 0"></path> </svg> 